<svg id="5a44f425-b333-46f7-96e4-545630e9d9e9" data-name="Layer 2" xmlns="http://www.w3.org/2000/svg" viewBox="0 0 159.8125 178.76074"><title>a</title><path d="M85.76514,3.24121q20.44043,47.37231,36.6499,84.76807,6.73169,15.958,13.33838,31.16455,6.60278,15.21094,11.84277,27.17578,6.22852,13.96582,11.46826,26.42773a12.52721,12.52721,0,0,1,.62354,1.87012,5.90865,5.90865,0,0,1,.12451,1.12109q0,2.99268-4.23828,2.99219H4.73682q-4.73877,0-4.73682-3.74023a4.05451,4.05451,0,0,1,.49854-2.24316L74.79541,3.24121A5.30971,5.30971,0,0,1,80.03076,0h.748A5.60314,5.60314,0,0,1,84.02.62354,8.70311,8.70311,0,0,1,85.76514,3.24121ZM29.66895,157.81836H130.64258L80.28027,39.14307Z" style="fill:#cf535c"/></svg>