<svg id="01c65722-56e3-4446-9cdf-6b2ad2396eeb" data-name="Layer 2" xmlns="http://www.w3.org/2000/svg" viewBox="0 0 125.40674 178.51123"><title>e</title><path d="M0,174.522V3.49023Q0,.00171,3.94238,0H121.6665q3.74121,0,3.74023,3.78613V16.40039q0,4.54614-3.98828,4.542H20.69336V50.61133H100.7251a3.32946,3.32946,0,0,1,2.74219,1.24658,4.665,4.665,0,0,1,.99609,2.9917V67.31543a4.65123,4.65123,0,0,1-.99609,2.99219,3.31856,3.31856,0,0,1-2.74219,1.24658H20.69336v30.915H100.7251q3.73828,0,3.73828,3.98926v12.71484a4.81361,4.81361,0,0,1-.99609,2.86719,3.20669,3.20669,0,0,1-2.74219,1.37109H20.69336v34.15723h99.97705a4.63829,4.63829,0,0,1,3.24023,1.1377,4.04646,4.04646,0,0,1,1.24609,3.15137v12.36426q0,4.28906-4.23828,4.28906H3.94238Q-.00171,178.51123,0,174.522Z" style="fill:#cf535c"/></svg>