<svg id="14284fd1-d329-48be-93b0-d489cfeb3f3f" data-name="Layer 2" xmlns="http://www.w3.org/2000/svg" viewBox="0 0 118.42578 178.76074"><title>k</title><path d="M118.42578,176.26758c0,.834-.58447,1.457-1.74512,1.87012a11.794,11.794,0,0,1-3.98926.623H95.73779a4.56458,4.56458,0,0,1-3.36572-1.37109q-1.37329-1.36816-2.61768-2.61816l-46.124-48.86621-22.937,23.93457v22.9375q0,5.98389-6.05762,5.9834H5.8042q-5.80811,0-5.8042-5.9834V5.9834A6.14058,6.14058,0,0,1,1.51172,1.62061,5.58785,5.58785,0,0,1,5.8042,0h8.83154a5.78563,5.78563,0,0,1,4.41748,1.74512A5.98142,5.98142,0,0,1,20.69336,5.9834V76.79L71.5542,22.688q1.24438-1.24438,2.74268-2.61768a5.00893,5.00893,0,0,1,3.49023-1.37158H94.74072q5.23535,0,5.23584,2.74268A2.87872,2.87872,0,0,1,98.979,23.436L20.69336,106.459V120.1709L86.7627,50.3623q1.24438-1.24512,2.74219-2.61816A5.01265,5.01265,0,0,1,92.99561,46.373h16.95361a9.187,9.187,0,0,1,4.48779,1.24658q2.24341,1.25024,0,3.49072L57.59229,110.94629l59.58691,63.07715A6.1758,6.1758,0,0,1,118.42578,176.26758Z" style="fill:#cf535c"/></svg>