<svg id="e29068d6-c9c7-413f-b683-d156d682e744" data-name="Layer 2" xmlns="http://www.w3.org/2000/svg" viewBox="0 0 153.33057 179.50879"><title>n</title><path d="M148.55029.748q2.77588,0,3.77881,1.12207a4.156,4.156,0,0,1,1.00146,2.86719L152.084,175.76855q0,3.73975-4.54248,3.74023H131.39063L20.69336,29.918v92.74609l43.63037.25q3.73975,0,3.73975,3.98828v12.71582a4.64734,4.64734,0,0,1-.99707,2.99121,3.59629,3.59629,0,0,1-2.9917,1.24707l-60.335-.249Q0,143.60742,0,140.36621V3.98926Q0,.00415,4.23828,0H21.44141a4.74375,4.74375,0,0,1,3.98877,1.99463L131.39063,144.85352,132.39941,4.48779a3.57,3.57,0,0,1,1.13379-2.61768A3.65076,3.65076,0,0,1,136.186.748h12.36426ZM86.01465,158.56641q3.73975,0,3.73975,3.98926v12.71484a4.31,4.31,0,0,1-1.12207,2.99121,3.67957,3.67957,0,0,1-2.86719,1.24707H3.73975Q0,179.50879,0,175.76855V163.05371a5.032,5.032,0,0,1,.99707-3.24121,3.60056,3.60056,0,0,1,2.99219-1.24609Z" style="fill:#cf535c"/></svg>